<svg width="200" height="200" viewBox="0 0 200 200" fill="none" xmlns="http://www.w3.org/2000/svg">
<circle cx="100" cy="100" r="100" fill="black"/>
<path fill-rule="evenodd" clip-rule="evenodd" d="M0 99.9982C0 44.7712 44.7724 0 99.9994 0C155.229 0 200 44.7712 200 99.9982C200 155.231 155.229 200 99.9994 200C44.7724 200 0 155.231 0 99.9982ZM156.754 87.3153C125.006 68.4609 72.6374 66.7273 42.3299 75.9257C37.4619 77.403 32.3152 74.6555 30.8415 69.7887C29.3666 64.9184 32.1105 59.7752 36.9809 58.2956C71.773 47.7352 129.608 49.7746 166.157 71.4706C170.536 74.0698 171.971 79.7234 169.376 84.0939C166.779 88.4715 161.121 89.9146 156.754 87.3153ZM145.152 117.77C148.761 119.99 153.487 118.856 155.714 115.242C157.934 111.636 156.798 106.908 153.188 104.685C122.788 86.0019 78.3171 80.7446 42.5452 91.6003C38.4911 92.8352 36.2012 97.1163 37.4244 101.176C38.6581 105.23 42.9475 107.519 47.0075 106.292C78.3218 96.787 118.684 101.501 145.152 117.77ZM135.221 144.103C138.113 145.872 141.892 144.963 143.662 142.06C145.431 139.167 144.52 135.386 141.625 133.618C115.665 117.755 83.4824 114.064 45.964 122.64C42.6532 123.394 40.5903 126.687 41.3477 129.991C42.1004 133.294 45.3936 135.363 48.6973 134.606C82.9814 126.775 112.093 129.967 135.221 144.103Z" fill="#1ED760"/>
</svg>
