<svg width="206" height="110" viewBox="0 0 206 110" fill="none" xmlns="http://www.w3.org/2000/svg">
<rect width="20" height="20" fill="#F4CF3E"/>
<rect x="186" width="20" height="20" fill="#F4CF3E"/>
<rect x="155" width="20" height="20" fill="#F4CF3E"/>
<rect x="62" width="20" height="20" fill="#F4CF3E"/>
<rect x="93" width="20" height="20" fill="#F4CF3E"/>
<rect x="124" width="20" height="20" fill="#F4CF3E"/>
<rect x="31" width="20" height="20" fill="#F4CF3E"/>
<rect y="90" width="20" height="20" fill="#F4CF3E"/>
<rect x="186" y="90" width="20" height="20" fill="#F4CF3E"/>
<rect x="155" y="90" width="20" height="20" fill="#F4CF3E"/>
<rect x="62" y="90" width="20" height="20" fill="#F4CF3E"/>
<rect x="93" y="90" width="20" height="20" fill="#F4CF3E"/>
<rect x="124" y="90" width="20" height="20" fill="#F4CF3E"/>
<rect x="31" y="90" width="20" height="20" fill="#F4CF3E"/>
<rect y="60" width="20" height="20" fill="#F4CF3E"/>
<rect x="186" y="60" width="20" height="20" fill="#F4CF3E"/>
<rect x="155" y="60" width="20" height="20" fill="#F4CF3E"/>
<rect x="62" y="60" width="20" height="20" fill="#F4CF3E"/>
<rect x="93" y="60" width="20" height="20" fill="#F4CF3E"/>
<rect x="124" y="60" width="20" height="20" fill="#F4CF3E"/>
<rect x="31" y="60" width="20" height="20" fill="#F4CF3E"/>
<rect y="30" width="20" height="20" fill="#F4CF3E"/>
<rect x="186" y="30" width="20" height="20" fill="#F4CF3E"/>
<rect x="155" y="30" width="20" height="20" fill="#F4CF3E"/>
<rect x="62" y="30" width="20" height="20" fill="#F4CF3E"/>
<rect x="93" y="30" width="20" height="20" fill="#F4CF3E"/>
<rect x="124" y="30" width="20" height="20" fill="#F4CF3E"/>
<rect x="31" y="30" width="20" height="20" fill="#F4CF3E"/>
</svg>
