<svg width="140" height="136" viewBox="0 0 140 136" fill="none" xmlns="http://www.w3.org/2000/svg">
<path d="M89 14L100.45 48.2037H137.504L107.527 69.3427L118.977 103.546L89 82.4073L59.023 103.546L70.4732 69.3427L40.4961 48.2037H77.5498L89 14Z" fill="#F4CF3E"/>
<path d="M89 90L94.1638 105.893H110.874L97.3552 115.715L102.519 131.607L89 121.785L75.4809 131.607L80.6448 115.715L67.1257 105.893H83.8362L89 90Z" fill="#F4CF3E"/>
<path d="M123.318 23.5079L118.52 30.7851L123.994 37.693L115.554 35.2826L110.756 42.5598L110.339 33.7929L101.899 31.3826L110.081 28.3747L109.663 19.6079L115.137 26.5158L123.318 23.5079Z" fill="#F4CF3E"/>
<path d="M46.3119 13.5244L41.6127 29.9752L56.0175 39.8013L38.7085 40.1423L34.0094 56.5931L28.011 40.3531L10.702 40.6942L24.3037 30.3163L18.3053 14.0763L32.7101 23.9024L46.3119 13.5244Z" fill="#F4CF3E"/>
</svg>
