<svg width="200" height="200" viewBox="0 0 200 200" fill="none" xmlns="http://www.w3.org/2000/svg">
<path d="M0 100C0 44.7715 44.7715 0 100 0C155.228 0 200 44.7715 200 100C200 155.228 155.228 200 100 200C44.7715 200 0 155.228 0 100Z" fill="#FF0000"/>
<path d="M151.104 75.3051C149.877 70.5925 146.263 66.8816 141.673 65.6222C133.356 63.3333 99.9999 63.3333 99.9999 63.3333C99.9999 63.3333 66.6441 63.3333 58.326 65.6222C53.7363 66.8816 50.1217 70.5925 48.8951 75.3051C46.6666 83.846 46.6666 101.667 46.6666 101.667C46.6666 101.667 46.6666 119.487 48.8951 128.028C50.1217 132.741 53.7363 136.452 58.326 137.712C66.6441 140 99.9999 140 99.9999 140C99.9999 140 133.356 140 141.673 137.712C146.263 136.452 149.877 132.741 151.104 128.028C153.333 119.487 153.333 101.667 153.333 101.667C153.333 101.667 153.333 83.846 151.104 75.3051Z" fill="white"/>
<path d="M89.9999 120V86.6667L116.667 103.334L89.9999 120Z" fill="#FF0000"/>
</svg>
